<svg width="16" height="17" viewBox="0 0 16 17" fill="none" xmlns="http://www.w3.org/2000/svg">
<path fill-rule="evenodd" clip-rule="evenodd" d="M8.00001 3.16667C6.58552 3.16667 5.22897 3.72857 4.22877 4.72876C3.22858 5.72896 2.66668 7.08551 2.66668 8.5C2.66668 9.20038 2.80463 9.89391 3.07265 10.541C3.34068 11.188 3.73353 11.776 4.22877 12.2712C4.72402 12.7665 5.31196 13.1593 5.95903 13.4274C6.6061 13.6954 7.29963 13.8333 8.00001 13.8333C8.70039 13.8333 9.39392 13.6954 10.041 13.4274C10.6881 13.1593 11.276 12.7665 11.7712 12.2712C12.2665 11.776 12.6593 11.188 12.9274 10.541C13.1954 9.89391 13.3333 9.20038 13.3333 8.5C13.3333 7.08551 12.7714 5.72896 11.7712 4.72876C10.7711 3.72857 9.4145 3.16667 8.00001 3.16667ZM3.28596 3.78595C4.53621 2.53571 6.2319 1.83333 8.00001 1.83333C9.76812 1.83333 11.4638 2.53571 12.7141 3.78595C13.9643 5.0362 14.6667 6.73189 14.6667 8.5C14.6667 9.37548 14.4942 10.2424 14.1592 11.0512C13.8242 11.8601 13.3331 12.595 12.7141 13.214C12.095 13.8331 11.3601 14.3242 10.5512 14.6592C9.7424 14.9942 8.87549 15.1667 8.00001 15.1667C7.12453 15.1667 6.25763 14.9942 5.44879 14.6592C4.63995 14.3242 3.90502 13.8331 3.28596 13.214C2.66691 12.595 2.17584 11.8601 1.84081 11.0512C1.50578 10.2424 1.33334 9.37548 1.33334 8.5C1.33334 6.73189 2.03572 5.0362 3.28596 3.78595ZM8.00001 5.16667C8.3682 5.16667 8.66668 5.46514 8.66668 5.83333V8.22386L10.4714 10.0286C10.7318 10.2889 10.7318 10.7111 10.4714 10.9714C10.2111 11.2318 9.78896 11.2318 9.52861 10.9714L7.52861 8.9714C7.40358 8.84638 7.33334 8.67681 7.33334 8.5V5.83333C7.33334 5.46514 7.63182 5.16667 8.00001 5.16667Z" fill="#A3B3C2"/>
</svg>
