<svg width="16" height="16" viewBox="0 0 16 16" fill="none" xmlns="http://www.w3.org/2000/svg">
<path fill-rule="evenodd" clip-rule="evenodd" d="M8 2.66671C6.58551 2.66671 5.22896 3.22861 4.22876 4.2288C3.22857 5.229 2.66667 6.58555 2.66667 8.00004C2.66667 8.70042 2.80462 9.39395 3.07264 10.041C3.34067 10.6881 3.73352 11.276 4.22876 11.7713C4.72401 12.2665 5.31195 12.6594 5.95902 12.9274C6.60609 13.1954 7.29962 13.3334 8 13.3334C8.70038 13.3334 9.39391 13.1954 10.041 12.9274C10.688 12.6594 11.276 12.2665 11.7712 11.7713C12.2665 11.276 12.6593 10.6881 12.9274 10.041C13.1954 9.39395 13.3333 8.70042 13.3333 8.00004C13.3333 6.58555 12.7714 5.229 11.7712 4.2288C10.771 3.22861 9.41449 2.66671 8 2.66671ZM3.28595 3.286C4.5362 2.03575 6.23189 1.33337 8 1.33337C9.76811 1.33337 11.4638 2.03575 12.714 3.286C13.9643 4.53624 14.6667 6.23193 14.6667 8.00004C14.6667 8.87552 14.4942 9.74243 14.1592 10.5513C13.8242 11.3601 13.3331 12.095 12.714 12.7141C12.095 13.3331 11.3601 13.8242 10.5512 14.1592C9.74238 14.4943 8.87548 14.6667 8 14.6667C7.12452 14.6667 6.25761 14.4943 5.44878 14.1592C4.63994 13.8242 3.90501 13.3331 3.28595 12.7141C2.6669 12.095 2.17583 11.3601 1.8408 10.5513C1.50577 9.74243 1.33333 8.87552 1.33333 8.00004C1.33333 6.23193 2.03571 4.53624 3.28595 3.286ZM8 4.66671C8.36819 4.66671 8.66667 4.96518 8.66667 5.33337V8.00004C8.66667 8.36823 8.36819 8.66671 8 8.66671C7.63181 8.66671 7.33333 8.36823 7.33333 8.00004V5.33337C7.33333 4.96518 7.63181 4.66671 8 4.66671ZM7.33333 10.6667C7.33333 10.2985 7.63181 10 8 10H8.00667C8.37486 10 8.67333 10.2985 8.67333 10.6667C8.67333 11.0349 8.37486 11.3334 8.00667 11.3334H8C7.63181 11.3334 7.33333 11.0349 7.33333 10.6667Z" fill="#C2CCD6"/>
</svg>
