<svg width="16" height="16" viewBox="0 0 16 16" fill="none" xmlns="http://www.w3.org/2000/svg">
<path fill-rule="evenodd" clip-rule="evenodd" d="M12.3333 2.66634C12.068 2.66634 11.8136 2.77172 11.626 2.9593L11.0974 3.48789L12.5119 4.90242L13.0405 4.37382C13.2281 4.18625 13.3335 3.93183 13.3335 3.66656C13.3335 3.40129 13.2281 3.14688 13.0405 2.9593C12.8529 2.77172 12.5985 2.66634 12.3333 2.66634ZM13.9833 5.31663C14.4209 4.87901 14.6668 4.28546 14.6668 3.66656C14.6668 3.04766 14.4209 2.45412 13.9833 2.01649C13.5457 1.57886 12.9521 1.33301 12.3333 1.33301C11.7144 1.33301 11.1208 1.57886 10.6832 2.01649L9.68353 3.01614C9.68341 3.01626 9.68364 3.01603 9.68353 3.01614C9.68341 3.01626 9.68295 3.01672 9.68283 3.01684L1.52851 11.1712C1.40349 11.2962 1.33325 11.4657 1.33325 11.6426V14.0239C1.33325 14.3921 1.63173 14.6906 1.99992 14.6906H4.33325C4.51006 14.6906 4.67963 14.6203 4.80466 14.4953L13.9833 5.31663ZM11.5691 5.84523L10.1546 4.4307L2.66659 11.9187V13.3572H4.05711L11.5691 5.84523Z" fill="#3D4D5C"/>
</svg>
