<svg width="16" height="17" viewBox="0 0 16 17" fill="none" xmlns="http://www.w3.org/2000/svg">
<path fill-rule="evenodd" clip-rule="evenodd" d="M8.00001 3.83331C8.3682 3.83331 8.66668 4.13179 8.66668 4.49998V7.83331H12C12.3682 7.83331 12.6667 8.13179 12.6667 8.49998C12.6667 8.86817 12.3682 9.16665 12 9.16665H8.66668V12.5C8.66668 12.8682 8.3682 13.1666 8.00001 13.1666C7.63182 13.1666 7.33334 12.8682 7.33334 12.5V9.16665H4.00001C3.63182 9.16665 3.33334 8.86817 3.33334 8.49998C3.33334 8.13179 3.63182 7.83331 4.00001 7.83331H7.33334V4.49998C7.33334 4.13179 7.63182 3.83331 8.00001 3.83331Z" fill="#FF8861"/>
</svg>
