<svg width="17" height="17" viewBox="0 0 17 17" fill="none" xmlns="http://www.w3.org/2000/svg">
<path fill-rule="evenodd" clip-rule="evenodd" d="M5.83333 1.83333C6.20152 1.83333 6.5 2.13181 6.5 2.5V3.16667H10.5V2.5C10.5 2.13181 10.7985 1.83333 11.1667 1.83333C11.5349 1.83333 11.8333 2.13181 11.8333 2.5V3.16667H13.1667C13.6971 3.16667 14.2058 3.37738 14.5809 3.75245C14.9559 4.12752 15.1667 4.63623 15.1667 5.16667V13.1667C15.1667 13.6971 14.9559 14.2058 14.5809 14.5809C14.2058 14.956 13.6971 15.1667 13.1667 15.1667H3.83333C3.3029 15.1667 2.79419 14.956 2.41911 14.5809C2.04404 14.2058 1.83333 13.6971 1.83333 13.1667V5.16667C1.83333 4.63623 2.04404 4.12752 2.41911 3.75245C2.79419 3.37738 3.3029 3.16667 3.83333 3.16667H5.16666V2.5C5.16666 2.13181 5.46514 1.83333 5.83333 1.83333ZM5.16666 4.5H3.83333C3.65652 4.5 3.48695 4.57024 3.36192 4.69526C3.2369 4.82029 3.16666 4.98985 3.16666 5.16667V13.1667C3.16666 13.3435 3.2369 13.513 3.36192 13.6381C3.48695 13.7631 3.65652 13.8333 3.83333 13.8333H13.1667C13.3435 13.8333 13.513 13.7631 13.6381 13.6381C13.7631 13.513 13.8333 13.3435 13.8333 13.1667V5.16667C13.8333 4.98985 13.7631 4.82029 13.6381 4.69526C13.513 4.57024 13.3435 4.5 13.1667 4.5H11.8333V5.16667C11.8333 5.53486 11.5349 5.83333 11.1667 5.83333C10.7985 5.83333 10.5 5.53486 10.5 5.16667V4.5H6.5V5.16667C6.5 5.53486 6.20152 5.83333 5.83333 5.83333C5.46514 5.83333 5.16666 5.53486 5.16666 5.16667V4.5ZM4.49999 7.83333C4.49999 7.46514 4.79847 7.16667 5.16666 7.16667H11.8333C12.2015 7.16667 12.5 7.46514 12.5 7.83333C12.5 8.20152 12.2015 8.5 11.8333 8.5H5.16666C4.79847 8.5 4.49999 8.20152 4.49999 7.83333Z" fill="#A3B3C2"/>
</svg>
