<svg width="18" height="18" viewBox="0 0 18 18" fill="none" xmlns="http://www.w3.org/2000/svg">
<path fill-rule="evenodd" clip-rule="evenodd" d="M9 3.00022C7.96166 3.00022 6.94664 3.30812 6.08329 3.88499C5.21994 4.46185 4.54703 5.28177 4.14966 6.24107C3.75229 7.20037 3.64831 8.25595 3.85086 9.27435C4.0534 10.2927 4.55336 11.2281 5.28752 11.9624C5.28755 11.9624 5.2875 11.9623 5.28752 11.9624L8.47052 15.1446C8.54004 15.2142 8.62291 15.2697 8.71377 15.3074C8.80463 15.345 8.90202 15.3644 9.00038 15.3644C9.09874 15.3644 9.19613 15.345 9.28699 15.3074C9.37785 15.2697 9.46039 15.2145 9.52991 15.1449L12.7124 11.9624C12.7124 11.9624 12.7124 11.9624 12.7124 11.9624C13.4466 11.2282 13.9466 10.2927 14.1491 9.27435C14.3517 8.25595 14.2477 7.20037 13.8503 6.24107C13.453 5.28177 12.7801 4.46185 11.9167 3.88499C11.0534 3.30812 10.0383 3.00022 9 3.00022ZM13.7731 13.0231C14.7171 12.0791 15.3599 10.8763 15.6203 9.56695C15.8808 8.25759 15.7471 6.90041 15.2362 5.66703C14.7253 4.43365 13.8601 3.37946 12.7501 2.63778C11.64 1.89609 10.335 1.50022 9 1.50022C7.66499 1.50022 6.35996 1.89609 5.24994 2.63778C4.13992 3.37946 3.27475 4.43365 2.76385 5.66703C2.25295 6.90041 2.11925 8.25759 2.37968 9.56695C2.6401 10.8763 3.28294 12.0791 4.22691 13.0231L7.40966 16.2051C7.61848 16.4141 7.86645 16.5799 8.1394 16.6931C8.41235 16.8062 8.70492 16.8644 9.00038 16.8644C9.29584 16.8644 9.58841 16.8062 9.86136 16.6931C10.1342 16.58 10.3821 16.4142 10.5908 16.2053C10.5907 16.2054 10.5909 16.2052 10.5908 16.2053L13.7731 13.0231Z" fill="#52677A"/>
<path fill-rule="evenodd" clip-rule="evenodd" d="M9 6.75C8.60217 6.75 8.22064 6.90804 7.93934 7.18934C7.65804 7.47064 7.5 7.85217 7.5 8.25C7.5 8.64783 7.65804 9.02936 7.93934 9.31066C8.22064 9.59196 8.60217 9.75 9 9.75C9.39783 9.75 9.77936 9.59196 10.0607 9.31066C10.342 9.02936 10.5 8.64783 10.5 8.25C10.5 7.85217 10.342 7.47064 10.0607 7.18934C9.77936 6.90804 9.39783 6.75 9 6.75ZM6.87868 6.12868C7.44129 5.56607 8.20435 5.25 9 5.25C9.79565 5.25 10.5587 5.56607 11.1213 6.12868C11.6839 6.69129 12 7.45435 12 8.25C12 9.04565 11.6839 9.80871 11.1213 10.3713C10.5587 10.9339 9.79565 11.25 9 11.25C8.20435 11.25 7.44129 10.9339 6.87868 10.3713C6.31607 9.80871 6 9.04565 6 8.25C6 7.45435 6.31607 6.69129 6.87868 6.12868Z" fill="#52677A"/>
</svg>
