<svg width="22" height="40" viewBox="0 0 22 40" fill="none" xmlns="http://www.w3.org/2000/svg">
<path fill-rule="evenodd" clip-rule="evenodd" d="M10.9091 20C15.9299 20 20 15.9299 20 10.9091C20 5.88836 15.9299 1.81824 10.9091 1.81824C5.88836 1.81824 1.81824 5.88836 1.81824 10.9091C1.81824 15.9299 5.88836 20 10.9091 20ZM20 10.9091C20 15.9299 15.9299 20 10.9091 20L10.9065 20C10.4577 18.9236 10.2098 17.7425 10.2098 16.5035C10.2098 11.4827 14.2799 7.41261 19.3007 7.41261H19.3032C19.7521 8.48896 20 9.67009 20 10.9091Z" fill="#FFAF94"/>
<path d="M10.9065 20C10.6745 19.9999 10.4446 19.9912 10.2169 19.974C7.68967 18.3593 6.01402 15.5292 6.01402 12.3077C6.01402 7.28695 10.0841 3.21683 15.1049 3.21683C15.3378 3.21683 15.5686 3.22559 15.7971 3.24279C17.7273 4.54551 18.6761 5.90914 19.3032 7.41261C19.9303 8.91608 19.3007 7.41261 19.3007 7.41261C14.2799 7.41261 10.2098 11.4827 10.2098 16.5035C10.2098 17.7425 10.4577 18.9236 10.9065 20Z" fill="#FF622E"/>
<path d="M2.51493 7.41262C3.88493 4.12739 7.12738 1.81824 10.9091 1.81824C14.6908 1.81824 17.9332 4.12737 19.3032 7.41261C17.9332 10.6978 14.6908 13.007 10.9091 13.007C7.12734 13.007 3.88493 10.6979 2.51493 7.41262Z" fill="#FFDAA3"/>
<path d="M19.3032 7.41261C17.9332 10.6978 14.6908 13.007 10.9091 13.007C10.9082 13.007 10.9074 13.007 10.9066 13.007C12.2766 9.72176 15.5189 7.41261 19.3007 7.41261H19.3032C19.3032 7.41261 19.3032 7.41261 19.3032 7.41261Z" fill="#FA3E00"/>
<path d="M2.72733 32.5874C4.09734 29.3022 7.33974 26.993 11.1215 26.993C14.9032 26.993 18.1456 29.3022 19.5156 32.5874C18.1456 35.8726 14.9032 38.1818 11.1215 38.1818C7.33974 38.1818 4.09734 35.8726 2.72733 32.5874Z" fill="#FFB13D"/>
<path d="M3.95524 34.6853C5.61912 32.5569 8.2105 31.1888 11.1214 31.1888C14.0324 31.1888 16.6237 32.5569 18.2876 34.6853C16.6237 36.8136 14.0324 38.1818 11.1215 38.1818C8.21054 38.1818 5.61912 36.8136 3.95524 34.6853Z" fill="#FA3E00"/>
<path d="M4.55228 35.3748C9.37634 35.1535 13.2195 31.1724 13.2195 26.2936C13.2195 23.8558 12.2599 21.6421 10.6979 20.0096C10.8383 20.0032 10.9796 19.9999 11.1216 19.9999C16.1423 19.9999 20.2125 24.0701 20.2125 29.0908C20.2125 34.1116 16.1422 38.1818 11.1215 38.1818C8.53853 38.1818 6.20729 37.1045 4.55228 35.3748Z" fill="#FF622E"/>
<path d="M10.4222 38.1552C15.1162 37.7981 18.8138 33.8763 18.8138 29.0908C18.8138 24.3054 15.1162 20.3835 10.4222 20.0264C10.653 20.0089 10.8863 19.9999 11.1216 19.9999C16.1423 19.9999 20.2125 24.0701 20.2125 29.0908C20.2125 34.1116 16.1422 38.1818 11.1215 38.1818C10.8862 38.1818 10.653 38.1728 10.4222 38.1552Z" fill="#FFAF94"/>
</svg>
