<svg width="65" height="94" viewBox="0 0 65 94" fill="none" xmlns="http://www.w3.org/2000/svg">
<path fill-rule="evenodd" clip-rule="evenodd" d="M32.5001 29.9999C40.0312 29.9999 46.1364 23.8947 46.1364 16.3636C46.1364 8.83248 40.0312 2.72729 32.5001 2.72729C24.969 2.72729 18.8638 8.83248 18.8638 16.3636C18.8638 23.8947 24.969 29.9999 32.5001 29.9999ZM46.1364 16.3636C46.1364 23.8947 40.0312 29.9999 32.5001 29.9999L32.4962 29.9999C31.8229 28.3854 31.4511 26.6137 31.4511 24.7552C31.4511 17.224 37.5563 11.1189 45.0874 11.1189H45.0913C45.7645 12.7334 46.1364 14.5051 46.1364 16.3636Z" fill="#FFAF94"/>
<path d="M32.4962 29.9999C32.1482 29.9998 31.8033 29.9867 31.4618 29.961C27.6709 27.5389 25.1574 23.2937 25.1574 18.4615C25.1574 10.9304 31.2626 4.82518 38.7938 4.82518C39.1431 4.82518 39.4893 4.83832 39.832 4.86412C42.7274 6.8182 44.1506 8.86364 45.0913 11.1189C46.0319 13.3741 45.0874 11.1189 45.0874 11.1189C37.5563 11.1189 31.4511 17.224 31.4511 24.7552C31.4511 26.6137 31.8229 28.3854 32.4962 29.9999Z" fill="#FF622E"/>
<path d="M19.9088 11.1189C21.9638 6.19102 26.8275 2.72729 32.5001 2.72729C38.1727 2.72729 43.0362 6.191 45.0913 11.1189C43.0362 16.0467 38.1726 19.5105 32.5 19.5105C26.8274 19.5105 21.9638 16.0467 19.9088 11.1189Z" fill="#FFDAA3"/>
<path d="M45.0913 11.1189C43.0362 16.0467 38.1726 19.5105 32.5 19.5105C32.4987 19.5105 32.4976 19.5104 32.4963 19.5104C34.5513 14.5826 39.4148 11.1189 45.0874 11.1189H45.0913C45.0913 11.1189 45.0913 11.1188 45.0913 11.1189Z" fill="#FA3E00"/>
<path d="M20.2274 48.881C22.2824 43.9532 27.146 40.4895 32.8186 40.4895C38.4912 40.4895 43.3548 43.9532 45.4098 48.881C43.3548 53.8089 38.4912 57.2726 32.8186 57.2726C27.146 57.2726 22.2824 53.8089 20.2274 48.881Z" fill="#FFB13D"/>
<path d="M22.0693 52.0279C24.5651 48.8354 28.4522 46.7831 32.8186 46.7831C37.185 46.7831 41.072 48.8354 43.5678 52.0279C41.072 55.2204 37.185 57.2726 32.8186 57.2726C28.4522 57.2726 24.5651 55.2204 22.0693 52.0279Z" fill="#FA3E00"/>
<path d="M22.9648 53.0621C30.2009 52.7302 35.9656 46.7585 35.9656 39.4404C35.9656 35.7837 34.5263 32.4631 32.1833 30.0144C32.3939 30.0047 32.6058 29.9999 32.8188 29.9999C40.3499 29.9999 46.4551 36.105 46.4551 43.6362C46.4551 51.1673 40.3498 57.2726 32.8186 57.2726C28.9442 57.2726 25.4474 55.6567 22.9648 53.0621Z" fill="#FF622E"/>
<path d="M31.7697 57.2327C38.8107 56.6971 44.3571 50.8144 44.3571 43.6362C44.3571 36.458 38.8107 30.5752 31.7697 30.0396C32.1159 30.0133 32.4659 29.9999 32.8188 29.9999C40.3499 29.9999 46.4551 36.105 46.4551 43.6362C46.4551 51.1673 40.3498 57.2726 32.8186 57.2726C32.4657 57.2726 32.1159 57.2591 31.7697 57.2327Z" fill="#FFAF94"/>
<path d="M18.24 67.76V74.696H20.04V78.296H18.24V86H13.728V67.76H18.24ZM1.44 68H11.64V71.6H5.952V81.68H12.12V85.28H1.44V68ZM40.7271 74.936H42.5271V78.536H40.7271V86H36.2151V67.712H40.7271V74.936ZM29.3511 79.28C25.8631 79.28 24.1191 77.456 24.1191 73.808V73.424C24.1191 69.776 25.8631 67.952 29.3511 67.952C31.1111 67.952 32.4311 68.416 33.3111 69.344C34.1911 70.256 34.6311 71.616 34.6311 73.424V73.808C34.6311 75.616 34.1911 76.984 33.3111 77.912C32.4311 78.824 31.1111 79.28 29.3511 79.28ZM28.4631 74.768C28.4631 75.376 28.7591 75.68 29.3511 75.68C29.9431 75.68 30.2391 75.376 30.2391 74.768V72.464C30.2391 71.856 29.9431 71.552 29.3511 71.552C28.7591 71.552 28.4631 71.856 28.4631 72.464V74.768ZM31.7031 79.76V81.68H35.4951V85.28H23.8791V81.68H27.1911V79.76H31.7031ZM63.165 67.76V74.696H64.965V78.296H63.165V86H58.653V67.76H63.165ZM46.605 85.28L46.125 81.68C47.005 81.68 47.901 81.368 48.813 80.744C49.725 80.12 50.501 79.056 51.141 77.552C51.781 76.032 52.101 74.032 52.101 71.552H46.365V67.952H56.613V71.552C56.613 74.32 56.189 76.744 55.341 78.824C54.509 80.888 53.333 82.48 51.813 83.6C50.309 84.72 48.573 85.28 46.605 85.28Z" fill="#FF622E"/>
</svg>
