<svg width="16" height="17" viewBox="0 0 16 17" fill="none" xmlns="http://www.w3.org/2000/svg">
<path fill-rule="evenodd" clip-rule="evenodd" d="M6.66665 3.16667C5.60578 3.16667 4.58836 3.5881 3.83822 4.33824C3.08807 5.08839 2.66665 6.1058 2.66665 7.16667C2.66665 7.69196 2.77011 8.2121 2.97113 8.6974C3.17215 9.18271 3.46678 9.62366 3.83822 9.9951C4.20965 10.3665 4.65061 10.6612 5.13591 10.8622C5.62121 11.0632 6.14136 11.1667 6.66665 11.1667C7.19193 11.1667 7.71208 11.0632 8.19738 10.8622C8.68268 10.6612 9.12364 10.3665 9.49507 9.9951C9.86651 9.62366 10.1611 9.1827 10.3622 8.6974C10.5632 8.2121 10.6666 7.69196 10.6666 7.16667C10.6666 6.1058 10.2452 5.08839 9.49507 4.33824C8.74493 3.5881 7.72751 3.16667 6.66665 3.16667ZM2.89541 3.39543C3.8956 2.39524 5.25216 1.83334 6.66665 1.83334C8.08113 1.83334 9.43769 2.39524 10.4379 3.39543C11.4381 4.39563 12 5.75218 12 7.16667C12 7.86705 11.862 8.56058 11.594 9.20765C11.4115 9.64837 11.171 10.0617 10.8797 10.4369L14.4714 14.0286C14.7317 14.2889 14.7317 14.7111 14.4714 14.9714C14.211 15.2318 13.7889 15.2318 13.5286 14.9714L9.9369 11.3797C9.56164 11.671 9.14835 11.9115 8.70763 12.094C8.06055 12.3621 7.36703 12.5 6.66665 12.5C5.96626 12.5 5.27274 12.3621 4.62567 12.094C3.9786 11.826 3.39066 11.4332 2.89541 10.9379C2.40016 10.4427 2.00731 9.85472 1.73929 9.20765C1.47126 8.56058 1.33331 7.86705 1.33331 7.16667C1.33331 5.75218 1.89522 4.39563 2.89541 3.39543Z" fill="#FF622E"/>
</svg>
