<svg width="24" height="24" viewBox="0 0 24 24" fill="none" xmlns="http://www.w3.org/2000/svg">
<path d="M24 12C24 18.6274 18.6274 24 12 24C5.37258 24 0 18.6274 0 12C0 5.37258 5.37258 0 12 0C18.6274 0 24 5.37258 24 12Z" fill="#F9FAFB"/>
<path d="M3.97485 20.9218C5.46219 18.0008 8.49745 16 12 16C15.5026 16 18.5378 18.0008 20.0252 20.9218C17.8992 22.8354 15.0856 24 12 24C8.91442 24 6.10087 22.8354 3.97485 20.9218Z" fill="#FFB13D"/>
<path d="M12 16C9.23859 16 7.00001 13.7614 7.00001 11C7.00001 8.23858 9.23859 6 12 6C14.7614 6 17 8.23858 17 11C17 13.7614 14.7614 16 12 16Z" fill="#FFB13D"/>
<path fill-rule="evenodd" clip-rule="evenodd" d="M12 23C18.0751 23 23 18.0751 23 12C23 5.92487 18.0751 1 12 1C5.92487 1 1 5.92487 1 12C1 18.0751 5.92487 23 12 23ZM12 24C18.6274 24 24 18.6274 24 12C24 5.37258 18.6274 0 12 0C5.37258 0 0 5.37258 0 12C0 18.6274 5.37258 24 12 24Z" fill="#FFB13D"/>
</svg>
